<svg width="121" height="224" viewBox="0 0 121 224" fill="none" xmlns="http://www.w3.org/2000/svg">
<path d="M31.5771 14.5479C49.1799 13.6121 59.6622 26.6325 63.3418 38.3574L63.5117 38.915L63.5205 38.9473C66.1135 50.5377 62.5946 67.3909 53.0068 82.2148C43.4068 97.0577 27.6839 109.929 5.78906 113.493C5.55818 113.531 5.33141 113.404 5.24414 113.187C5.15695 112.97 5.23221 112.721 5.4248 112.588C15.7262 105.491 26.823 95.5402 35.1318 83.8525C43.4405 72.165 48.9364 58.7774 48.1133 44.7852C47.1062 30.9296 41.7494 23.745 34.2354 20.8945L34.2227 20.8896C28.6367 18.5991 22.8408 19.778 18.1104 22.4355C13.3814 25.0923 9.80898 29.1757 8.63184 32.5713C8.44718 33.5212 8.45237 34.3473 8.57812 35.0645C10.3484 34.1951 12.3858 33.7012 14.5498 33.7012C21.2657 33.7013 26.8349 38.4879 26.835 44.5195C26.835 50.5507 21.2657 55.3377 14.5498 55.3379C9.63615 55.3379 5.35992 52.7887 3.39844 49.0645C1.1117 45.8738 -0.924309 40.4356 1.81738 32.4131C1.82792 32.3823 1.84211 32.3524 1.8584 32.3242C4.73467 27.3568 7.71743 23.1293 12.2275 20.0371C16.7422 16.9418 22.7356 15.0181 31.5771 14.5479Z" fill="black" stroke="black" stroke-linejoin="round"/>
<path d="M77.6557 40.0775C80.7793 40.0775 83.3114 37.5195 83.3114 34.3641C83.3114 31.2086 80.7793 28.6506 77.6557 28.6506C74.5321 28.6506 72 31.2086 72 34.3641C72 37.5195 74.5321 40.0775 77.6557 40.0775Z" fill="black"/>
<path d="M77.6557 66.4334C80.7793 66.4334 83.3114 63.8754 83.3114 60.7199C83.3114 57.5645 80.7793 55.0065 77.6557 55.0065C74.5321 55.0065 72 57.5645 72 60.7199C72 63.8754 74.5321 66.4334 77.6557 66.4334Z" fill="black"/>
</svg>
