<svg width="17" height="45" viewBox="0 0 17 45" fill="none" xmlns="http://www.w3.org/2000/svg">
<path d="M0.604337 45C0.271952 45 0 44.726 0 44.3911V0.608931C0 0.274019 0.271952 0 0.604337 0H2.42339C2.75578 0 3.02773 0.274019 3.02773 0.608931V26.0805C4.10949 24.8444 5.00391 24.1502 5.94668 23.5535C7.2037 22.7497 9.04693 22.2016 10.5276 22.2016C12.3829 22.2016 14.0448 22.8166 15.2051 23.9432C16.3292 25.021 17 26.8539 17 28.8329C17 31.433 15.8518 34.0575 13.7608 36.2192C11.8087 38.2896 10.026 39.7206 6.43619 42.1137C5.4209 42.7774 4.62318 43.3315 3.94028 43.8552C2.97938 44.5981 1.80092 44.9878 0.59225 44.9878L0.604337 45ZM3.02773 41.0419C5.86811 38.7585 7.86847 36.7612 8.99254 35.0927C10.2979 33.2233 10.9143 31.8958 10.9143 29.4114C10.9143 28.6319 10.5396 27.8221 9.91113 27.2436C9.34909 26.7625 8.84145 26.6712 7.98329 26.6712C6.77462 26.6712 4.78635 27.7916 3.02773 30.2882V41.048V41.0419Z" fill="white"/>
</svg>
