<svg width="120" height="224" viewBox="0 0 120 224" fill="none" xmlns="http://www.w3.org/2000/svg">
<path fill-rule="evenodd" clip-rule="evenodd" d="M24.8354 210.332C23.8742 210.332 22.1673 210.127 22.177 210.201C22.7802 214.736 30.0091 216.918 34.2432 217.242C46.9788 218.213 53.6751 203.843 53.9261 186.986C53.9574 184.859 53.9204 182.678 53.8231 180.462C36.3378 184.623 5.41077 176.235 0.516207 147.926C-2.45271 132.528 7.90109 119.55 18.3562 107.966C23.1663 102.637 28.1928 97.6978 34.0743 90.8004C23.0537 62.9283 24.8024 35.6234 46.0602 21C62.8288 40.4399 73.9524 65.265 41.6474 100.981C43.6085 107.773 46.7704 117.151 48.2497 122.768C88.4776 118.172 100.994 167.292 58.6413 178.917C59.0724 186.683 58.8311 194.069 57.5433 200.396C54.8808 213.477 47.9175 222.235 34.2441 222.062C20.273 221.885 11.1523 206.968 13.2533 198.355C14.4301 193.531 18.5292 187.887 24.8354 187.887C31.3363 187.887 36.6145 193.539 36.6145 199.511C36.6145 205.483 31.3363 210.332 24.8354 210.332ZM53.5199 175.563C52.2836 159.958 48.9631 147.065 45.7964 134.696C36.1231 135.702 29.915 144.959 32.2693 152.087C33.7518 156.576 36.8784 158.915 41.5461 161.217C44.3573 164.397 43.4476 166.266 40.8222 166.249C38.8394 165.592 31.7714 163.18 27.4995 154.378C21.6823 142.39 29.3503 126.898 43.0679 123.842C41.6402 118.479 39.6671 110.246 38.0543 104.798C32.9241 110.634 30.0662 112.036 26.1353 117.825C20.8433 125.621 12.1795 134.43 14.9795 148.414C20.0213 173.595 38.2208 179.666 53.5199 175.563ZM36.995 87.2845C39.6317 83.1026 61.3986 64.7808 51.6529 37.2047C36.4424 45.7302 34.5907 53.9782 33.4598 63.9885C32.5686 71.8777 35.4192 81.4062 36.995 87.2845ZM50.8566 134.464C53.9156 146.564 56.903 158.535 58.2664 173.784C80.8321 164.553 76.5569 133.051 50.8566 134.464Z" fill="black"/>
</svg>
