<svg width="17" height="45" viewBox="0 0 17 45" fill="none" xmlns="http://www.w3.org/2000/svg">
<g clip-path="url(#clip0_109_841)">
<path d="M11.2308 39.5C11.1898 39.5 11.1562 39.4664 11.1562 39.4253V31.0637C11.1562 30.8435 11.0481 30.6374 10.8676 30.5112C10.755 30.4328 10.623 30.3917 10.485 30.3917C10.4037 30.3917 10.3239 30.4059 10.2486 30.435L3.10068 33.108C3.09248 33.111 3.08353 33.1125 3.07458 33.1125C3.05892 33.1125 3.04475 33.108 3.03207 33.0991C3.01193 33.0849 3 33.0625 3 33.0378V3.57466C3 3.5336 3.03356 3.5 3.07458 3.5H5.7692C5.81022 3.5 5.84379 3.5336 5.84379 3.57466V12.3171C5.84379 12.5373 5.95118 12.7434 6.13167 12.8688C6.24503 12.9472 6.37779 12.989 6.51502 12.989C6.59557 12.989 6.67462 12.9749 6.74995 12.9465L13.8285 10.2989C13.8367 10.2959 13.8456 10.2944 13.8546 10.2944C13.8702 10.2944 13.8844 10.2989 13.8971 10.3079C13.9172 10.3221 13.9291 10.3444 13.9291 10.3691L14 39.4268C14 39.4664 13.9657 39.5 13.9254 39.5H11.2308ZM10.4141 17.7302C10.3336 17.7302 10.2545 17.7444 10.1792 17.7728L6.28158 19.2302C6.02054 19.3273 5.84528 19.5804 5.84528 19.8596V24.5971C5.84528 24.8173 5.95267 25.0234 6.13316 25.1496C6.24578 25.228 6.37779 25.269 6.51576 25.269C6.59706 25.269 6.67686 25.2541 6.75293 25.2257L10.6491 23.769C10.9101 23.672 11.0854 23.4189 11.0854 23.1396V18.4022C11.0854 18.1819 10.978 17.9751 10.7975 17.8497C10.6849 17.7713 10.5529 17.7302 10.4149 17.7302H10.4141Z" fill="white"/>
</g>
<defs>
<clipPath id="clip0_109_841">
<rect width="11" height="36" fill="white" transform="translate(3 3.5)"/>
</clipPath>
</defs>
</svg>
