<svg width="17" height="45" viewBox="0 0 17 45" fill="none" xmlns="http://www.w3.org/2000/svg">
<path d="M11.0419 39.0921C10.9429 39.1096 10.834 39.0493 10.7488 38.9224C10.6645 38.8011 10.6106 38.6289 10.6082 38.4591L10.3863 28.6678L6.7782 29.304L6.95049 39.3935C6.9551 39.6424 6.85468 39.8304 6.7099 39.8559L5.62022 40.0481C5.51735 40.0662 5.40754 40.0004 5.32328 39.8791C5.23806 39.7522 5.18795 39.5794 5.1855 39.4096L5.04082 29.6103L1.60796 30.2156C1.50509 30.2338 1.39528 30.168 1.31103 30.0467C1.2258 29.9198 1.17569 29.747 1.17324 29.5772L1.11049 25.1441C1.10685 24.9007 1.20728 24.7127 1.35206 24.6872L4.9297 24.0563L4.79687 18.8694L1.32973 19.4808C1.22686 19.4989 1.11802 19.4386 1.03279 19.3118C0.947566 19.1849 0.893646 19.0128 0.891198 18.8429L0.811947 14.3163C0.80734 14.0674 0.907763 13.8794 1.05255 13.8539L4.66066 13.2177L4.48732 4.59267C4.48272 4.34375 4.58217 4.15026 4.72695 4.12474L5.78996 3.9373C5.88902 3.91983 5.99786 3.9801 6.08689 4.1063C6.17593 4.23249 6.22507 4.39978 6.22849 4.57512L6.39804 12.9113L10.0062 12.2751L9.85852 3.63991C9.85392 3.39099 9.95434 3.20301 10.0991 3.17748L11.1888 2.98534C11.2917 2.9672 11.4015 3.03297 11.4857 3.15433C11.571 3.2812 11.6211 3.45399 11.6235 3.62383L11.7388 11.9639L15.1411 11.364C15.2402 11.3465 15.349 11.4068 15.4343 11.5337C15.5185 11.655 15.5724 11.8271 15.5749 11.997L15.6808 16.5189C15.6854 16.7678 15.586 16.9613 15.4374 16.9875L11.8635 17.6177L12.0192 22.8006L15.2959 22.2228C15.3987 22.2047 15.5086 22.2705 15.5928 22.3918C15.678 22.5187 15.7281 22.6915 15.7306 22.8613L15.7933 27.2944C15.797 27.5378 15.6966 27.7258 15.5518 27.7513L12.1685 28.3479L12.3407 38.4374C12.3454 38.6863 12.2449 38.8743 12.1001 38.8998L11.0371 39.0873L11.0419 39.0921ZM10.2704 23.1089L10.1605 17.918L6.52567 18.5589L6.63563 23.7499L10.2704 23.1089Z" fill="white"/>
</svg>
